<svg viewBox="20 171.753 398.294 95.006" width="398.294" height="95.006" xmlns="http://www.w3.org/2000/svg">
  <g transform="matrix(1, 0, 0, 1, -68.40001678466797, -69.13618469238281)">
    <svg xmlns="http://www.w3.org/2000/svg" id="Layer_1" dataname="Layer 1" viewBox="172 138.8800048828125 154.90390014648438 211.77993774414062" height="91.49419626497274" width="66.92232142491548" y="241.75290186751363" x="90.00000000000003" preserveAspectRatio="xMinYMin" style="overflow: visible;">
      <path class="cls-1" d="M172.72,349l.18-.18a1.07,1.07,0,0,1,.38-.32l1-.45c.93-.44,1.89-.89,2.87-1.27,14.06-5.52,29.6-10.05,48.65-14.16l3.85-.82c27.73-5.77,52.45-8.24,75.55-7.56a55.49,55.49,0,0,1,12.52,2.33l.34.09a3.87,3.87,0,0,1,2.66,1.75c.45.87.38,2-.2,3.52-1.13,3-2.35,6-3.52,8.9-.87,2.16-1.74,4.32-2.59,6.49a3.75,3.75,0,0,1-3.15,2.53l-1.72.25-1.35.21a30.29,30.29,0,0,1-4.14.35h-.11c-9.31-.06-18.78-.18-27.94-.3l-13-.17L249.21,350c-19.35-.23-39.35-.47-59-.65-3.89,0-7.69.08-11.72.19l-5.44.14-1.05,0Z" style="fill: #ff4f00; fill-opacity: 1;"/>
      <path class="cls-1" d="M313,317.69l-5,.17c-5.07.16-10.23.3-15.34.3h-2.08c-15.92-.12-32.09-.32-47.74-.52q-16.8-.21-33.61-.39c-5.2-.05-10.49,0-15.6.07-2.39,0-4.78.06-7.16.07l-.38-.05-.1-.92.28-.12,1.26-.53c1-.41,1.94-.83,2.94-1.2a387.75,387.75,0,0,1,43.28-13c24.3-5.94,44.78-9,64.46-9.74,6.53-.24,13.27-.49,19.85,1.48a27.64,27.64,0,0,1,6.49,3.06,4.86,4.86,0,0,1,2.24,5.21c-.67,4.13-1.17,8.3-1.58,11.88a3.3,3.3,0,0,1-2.61,3.07l-.85.23a19.54,19.54,0,0,1-4.35.82Z" style="fill: #ff4f00; fill-opacity: 1;"/>
      <path class="cls-1" d="M324.46,279,324,279a40.14,40.14,0,0,1-6.29.85c-7.42.23-14.16.42-21,.42h-1.87c-15.71-.08-31.69-.23-47.14-.37l-22.53-.21c-3.55,0-7.11,0-10.66-.05h-5l-.31,0-.09-.29c0-.11-.07-.22-.1-.33l-.1-.35,1.51-.64c.83-.36,1.67-.72,2.52-1a311.39,311.39,0,0,1,44.43-13.4c18.58-4.13,34-5.84,48.67-5.39a28.52,28.52,0,0,1,15.7,4.7c1.69,1.15,3.65,2.86,3.84,5.9a63,63,0,0,0,.93,7A2.39,2.39,0,0,1,324.46,279Z" style="fill: #ff4f00; fill-opacity: 1;"/>
      <path class="cls-1" d="M317.88,248.68l-.71.11a48.49,48.49,0,0,1-6.61.62c-11.6,0-22.94,0-34.14-.23-13.22-.26-26.15-.58-39.83-.92l-17.05-.42-2-.05,2.5-1a4.93,4.93,0,0,1,.61-.24c3-.95,6-1.93,9-2.91,6.62-2.17,13.45-4.41,20.28-6.25,16.53-4.45,31.66-6.49,46.27-6.23a38.9,38.9,0,0,1,14.47,3.38c4.57,1.89,7.43,5.39,9,11a2.67,2.67,0,0,1-.1,2.25A2.23,2.23,0,0,1,317.88,248.68Z" style="fill: #ff4f00; fill-opacity: 1;"/>
      <path class="cls-1" d="M281.64,221.69c-22.68,0-52.76-.53-57-1.31l-1.16-.21,1.2-.65a1.86,1.86,0,0,1,.37-.19,175.82,175.82,0,0,1,45.1-10.74c6.51-.62,13.5-1,20.4.7a28.72,28.72,0,0,1,17,11.14l.29.4-.44.22C306.45,221.49,295.41,221.69,281.64,221.69Z" style="fill: #ff4f00; fill-opacity: 1;"/>
      <path class="cls-1" d="M277.54,203c-16.46,0-40.22-.66-43.6-1.52l-1.1-.29,1-.49c.19-.09.37-.17.53-.26a9.45,9.45,0,0,1,1-.45,119.93,119.93,0,0,1,23.75-6.46c6.62-1,13.11-1.8,19.7-.16a32.61,32.61,0,0,1,14.64,8.38l.4.38-.48.28C292.7,202.8,286.11,203,277.54,203Z" style="fill: #ff4f00; fill-opacity: 1;"/>
      <path class="cls-1" d="M272.48,189.16c-8.36,0-16.75-.39-24.91-.78-4.06-.19-8.11-.38-12.17-.52l-1.48-.06,1.29-.72a31.24,31.24,0,0,1,3.54-1.63c7.27-2.9,18.35-5,24.52-4.48,5.54.49,10.66,2.83,16.13,7.37l.84.7-1.09,0Q275.82,189.16,272.48,189.16Z" style="fill: #ff4f00; fill-opacity: 1;"/>
      <path class="cls-1" d="M260.29,177.19c-5.79,0-11.6-.27-17.26-.54-2.82-.13-5.64-.26-8.46-.36l-1.48-.06,1.29-.72c4.6-2.55,14.46-4.71,19.53-4.25,3.87.34,7.44,2,11.26,5.14l.84.7-1.1,0Q262.62,177.19,260.29,177.19Z" style="fill: #ff4f00; fill-opacity: 1;"/>
      <path class="cls-1" d="M249.33,168c-3.34,0-6.68-.16-9.93-.31-1.61-.08-3.22-.15-4.84-.21l-1.47-.05,1.29-.72a25.52,25.52,0,0,1,11.3-2.46,11.63,11.63,0,0,1,6.56,3l.84.7-1.09,0C251.1,168,250.21,168,249.33,168Z" style="fill: #ff4f00; fill-opacity: 1;"/>
      <path class="cls-1" d="M234.69,161.88s.51-14.18.86-23l.19,0c-.18,14.57,2.9,20.34,4.36,22.23a21.58,21.58,0,0,0-4.82.8Z" style="fill: #ff4f00; fill-opacity: 1;"/>
    </svg>
  </g>
  <g transform="matrix(1, 0, 0, 1, -68.40001678466797, -69.13618469238281)">
    <svg xmlns="http://www.w3.org/2000/svg" y="268.9393839155749" viewBox="3.299999952316284 17.200000762939453 294.6800231933594 51.28000259399414" x="190.32765451040606" height="51.28000259399414" width="294.6800231933594" style="overflow: visible;">
      <g fill="#ff4f00" fill-opacity="1" style="">
        <path d="M20.05 68.35Q15.33 68.35 11.54 66.73Q7.76 65.12 5.56 62.08Q3.36 59.04 3.30 54.90L3.30 54.90L13.00 54.90Q13.19 57.68 14.97 59.30Q16.75 60.91 19.85 60.91L19.85 60.91Q23.02 60.91 24.83 59.39Q26.64 57.88 26.64 55.42L26.64 55.42Q26.64 53.41 25.41 52.12Q24.18 50.83 22.34 50.08Q20.50 49.34 17.27 48.43L17.27 48.43Q12.87 47.14 10.12 45.88Q7.37 44.62 5.40 42.06Q3.43 39.51 3.43 35.24L3.43 35.24Q3.43 31.23 5.43 28.26Q7.44 25.28 11.06 23.70Q14.68 22.12 19.33 22.12L19.33 22.12Q26.32 22.12 30.68 25.51Q35.05 28.91 35.50 34.98L35.50 34.98L25.54 34.98Q25.41 32.66 23.57 31.14Q21.73 29.62 18.69 29.62L18.69 29.62Q16.04 29.62 14.45 30.97Q12.87 32.33 12.87 34.92L12.87 34.92Q12.87 36.73 14.06 37.93Q15.26 39.12 17.04 39.87Q18.82 40.61 22.05 41.58L22.05 41.58Q26.45 42.87 29.23 44.17Q32.01 45.46 34.01 48.05Q36.02 50.63 36.02 54.84L36.02 54.84Q36.02 58.46 34.14 61.56Q32.27 64.66 28.65 66.51Q25.03 68.35 20.05 68.35L20.05 68.35ZM40.87 49.86Q40.87 44.42 43.03 40.22Q45.20 36.02 48.92 33.76Q52.64 31.49 57.23 31.49L57.23 31.49Q61.24 31.49 64.24 33.11Q67.25 34.73 69.06 37.18L69.06 37.18L69.06 32.07L78.18 32.07L78.18 67.90L69.06 67.90L69.06 62.66Q67.32 65.18 64.24 66.83Q61.17 68.48 57.16 68.48L57.16 68.48Q52.64 68.48 48.92 66.15Q45.20 63.82 43.03 59.59Q40.87 55.35 40.87 49.86L40.87 49.86ZM69.06 49.99Q69.06 46.69 67.77 44.33Q66.48 41.97 64.28 40.71Q62.08 39.45 59.56 39.45L59.56 39.45Q57.03 39.45 54.90 40.67Q52.77 41.90 51.44 44.26Q50.12 46.62 50.12 49.86L50.12 49.86Q50.12 53.09 51.44 55.51Q52.77 57.94 54.93 59.23Q57.10 60.53 59.56 60.53L59.56 60.53Q62.08 60.53 64.28 59.27Q66.48 58.00 67.77 55.64Q69.06 53.28 69.06 49.99L69.06 49.99ZM90.98 27.81Q88.59 27.81 87.01 26.29Q85.42 24.77 85.42 22.50L85.42 22.50Q85.42 20.24 87.01 18.72Q88.59 17.20 90.98 17.20L90.98 17.20Q93.38 17.20 94.96 18.72Q96.54 20.24 96.54 22.50L96.54 22.50Q96.54 24.77 94.96 26.29Q93.38 27.81 90.98 27.81L90.98 27.81ZM86.39 32.07L95.45 32.07L95.45 67.90L86.39 67.90L86.39 32.07ZM103.72 20.05L112.78 20.05L112.78 67.90L103.72 67.90L103.72 20.05ZM118.66 22.76L151.77 22.76L151.77 30.07L139.74 30.07L139.74 67.90L130.69 67.90L130.69 30.07L118.66 30.07L118.66 22.76ZM166.77 37.63Q168.52 34.79 171.33 33.17Q174.14 31.56 177.76 31.56L177.76 31.56L177.76 41.06L175.37 41.06Q171.10 41.06 168.94 43.07Q166.77 45.07 166.77 50.05L166.77 50.05L166.77 67.90L157.72 67.90L157.72 32.07L166.77 32.07L166.77 37.63ZM180.87 49.86Q180.87 44.42 183.03 40.22Q185.20 36.02 188.92 33.76Q192.64 31.49 197.23 31.49L197.23 31.49Q201.24 31.49 204.24 33.11Q207.25 34.73 209.06 37.18L209.06 37.18L209.06 32.07L218.18 32.07L218.18 67.90L209.06 67.90L209.06 62.66Q207.32 65.18 204.24 66.83Q201.17 68.48 197.16 68.48L197.16 68.48Q192.64 68.48 188.92 66.15Q185.20 63.82 183.03 59.59Q180.87 55.35 180.87 49.86L180.87 49.86ZM209.06 49.99Q209.06 46.69 207.77 44.33Q206.48 41.97 204.28 40.71Q202.08 39.45 199.56 39.45L199.56 39.45Q197.03 39.45 194.90 40.67Q192.77 41.90 191.44 44.26Q190.11 46.62 190.11 49.86L190.11 49.86Q190.11 53.09 191.44 55.51Q192.77 57.94 194.93 59.23Q197.10 60.53 199.56 60.53L199.56 60.53Q202.08 60.53 204.28 59.27Q206.48 58.00 207.77 55.64Q209.06 53.28 209.06 49.99L209.06 49.99ZM224.06 49.99Q224.06 44.42 226.33 40.25Q228.59 36.08 232.60 33.79Q236.61 31.49 241.78 31.49L241.78 31.49Q248.44 31.49 252.81 34.82Q257.17 38.15 258.66 44.17L258.66 44.17L248.90 44.17Q248.12 41.84 246.28 40.51Q244.43 39.19 241.72 39.19L241.72 39.19Q237.84 39.19 235.57 42.00Q233.31 44.81 233.31 49.99L233.31 49.99Q233.31 55.09 235.57 57.91Q237.84 60.72 241.72 60.72L241.72 60.72Q247.21 60.72 248.90 55.81L248.90 55.81L258.66 55.81Q257.17 61.63 252.78 65.05Q248.38 68.48 241.78 68.48L241.78 68.48Q236.61 68.48 232.60 66.18Q228.59 63.89 226.33 59.72Q224.06 55.55 224.06 49.99L224.06 49.99ZM297.98 49.21Q297.98 51.15 297.72 52.70L297.72 52.70L271.53 52.70Q271.85 56.58 274.24 58.78Q276.64 60.98 280.13 60.98L280.13 60.98Q285.17 60.98 287.31 56.65L287.31 56.65L297.07 56.65Q295.52 61.82 291.12 65.15Q286.72 68.48 280.32 68.48L280.32 68.48Q275.15 68.48 271.04 66.18Q266.94 63.89 264.64 59.69Q262.35 55.48 262.35 49.99L262.35 49.99Q262.35 44.42 264.61 40.22Q266.87 36.02 270.95 33.76Q275.02 31.49 280.32 31.49L280.32 31.49Q285.43 31.49 289.47 33.69Q293.51 35.89 295.74 39.93Q297.98 43.97 297.98 49.21L297.98 49.21ZM271.59 46.62L288.60 46.62Q288.53 43.13 286.08 41.03Q283.62 38.93 280.06 38.93L280.06 38.93Q276.70 38.93 274.41 40.97Q272.11 43.00 271.59 46.62L271.59 46.62Z" transform="translate(0, 0)"/>
      </g>
    </svg>
  </g>
</svg>